<?xml version="1.0" standalone="no"?>
<!DOCTYPE svg PUBLIC "-//W3C//DTD SVG 20010904//EN"
 "http://www.w3.org/TR/2001/REC-SVG-20010904/DTD/svg10.dtd">
<svg version="1.0" xmlns="http://www.w3.org/2000/svg"
 width="1080.000000pt" height="1080.000000pt" viewBox="0 0 1080.000000 1080.000000"
 preserveAspectRatio="xMidYMid meet">
<metadata>
Created by potrace 1.14, written by Peter Selinger 2001-2017
</metadata>
<g transform="translate(0.000000,1080.000000) scale(0.100000,-0.100000)"
fill="#000000" stroke="none">
<path d="M2987 7929 c-12 -17 -17 -45 -17 -100 0 -72 2 -79 26 -98 20 -15 41
-21 81 -21 64 0 275 -33 392 -61 239 -58 463 -151 681 -282 94 -57 301 -210
339 -251 18 -19 34 -26 61 -26 32 0 44 8 89 54 66 70 67 96 9 152 -190 180
-496 367 -791 483 -227 90 -523 157 -743 168 -108 6 -111 5 -127 -18z"/>
<path d="M1620 7619 c-329 -179 -669 -493 -889 -824 -85 -126 -156 -253 -210
-374 -51 -114 -48 -130 32 -165 72 -32 104 -38 127 -26 11 6 49 69 85 140 110
221 220 385 367 550 172 193 364 348 605 488 102 60 104 67 57 171 -42 95 -63
100 -174 40z"/>
<path d="M2990 7500 c-17 -17 -20 -33 -20 -99 0 -103 13 -115 131 -125 357
-30 736 -185 1033 -424 58 -47 99 -72 115 -72 30 0 141 109 141 139 0 31 -44
75 -164 165 -310 233 -646 370 -1030 421 -155 20 -182 19 -206 -5z"/>
<path d="M2758 7503 c12 -2 30 -2 40 0 9 3 -1 5 -23 4 -22 0 -30 -2 -17 -4z"/>
<path d="M2828 7410 l3 -78 -42 -7 c-23 -4 -65 -15 -93 -25 l-51 -18 75 5
c111 8 120 16 120 113 0 43 -3 81 -7 83 -5 3 -7 -30 -5 -73z"/>
<path d="M2440 7340 c0 -8 5 -22 10 -30 9 -13 10 -13 10 0 0 8 -5 22 -10 30
-9 13 -10 13 -10 0z"/>
<path d="M2472 7274 c10 -10 20 -16 22 -13 3 3 -5 11 -17 18 -21 13 -21 12 -5
-5z"/>
<path d="M2555 7270 c-4 -6 6 -7 27 -3 44 8 48 13 10 13 -17 0 -34 -4 -37 -10z"/>
<path d="M1787 7218 c-261 -154 -505 -384 -691 -652 -76 -108 -206 -355 -206
-390 0 -32 29 -54 106 -82 61 -22 69 -23 90 -10 12 9 48 65 78 126 162 321
416 598 723 786 94 57 123 82 123 105 0 28 -61 149 -80 159 -32 17 -53 11
-143 -42z"/>
<path d="M2990 7060 c-17 -17 -20 -33 -20 -98 0 -103 6 -109 141 -128 283 -39
552 -156 757 -328 58 -48 82 -46 144 11 90 85 86 111 -28 199 -244 188 -515
305 -813 349 -129 20 -157 19 -181 -5z"/>
<path d="M2631 7055 c-65 -12 -108 -43 -98 -70 3 -6 13 -39 22 -73 11 -38 25
-67 36 -73 22 -11 181 6 219 25 23 11 25 17 28 95 2 70 0 85 -15 97 -22 17
-106 16 -192 -1z"/>
<path d="M1972 6813 c-262 -165 -483 -408 -626 -688 -25 -49 -46 -95 -46 -101
0 -27 48 -63 111 -84 63 -22 67 -22 92 -5 15 9 27 22 27 27 0 19 103 192 158
268 107 145 281 306 422 390 30 18 61 40 68 48 20 25 14 69 -18 131 -45 91
-64 92 -188 14z"/>
<path d="M2993 6625 c-21 -15 -23 -24 -23 -99 0 -101 6 -108 110 -126 164 -27
308 -86 457 -187 62 -42 88 -54 106 -49 31 7 127 109 127 134 0 27 -42 67
-138 129 -169 111 -379 190 -557 208 -46 5 -65 2 -82 -10z"/>
<path d="M2692 6623 c-37 -7 -46 -37 -32 -107 17 -90 30 -106 88 -106 27 0 57
7 70 16 20 14 22 24 22 98 0 50 -5 87 -12 94 -11 11 -87 14 -136 5z"/>
<path d="M2194 6426 c-77 -52 -77 -77 -1 -158 53 -57 72 -59 133 -18 54 38 56
59 14 148 -27 58 -31 62 -62 62 -21 0 -52 -12 -84 -34z"/>
<path d="M5493 6319 c-120 -23 -194 -105 -194 -215 0 -66 6 -90 38 -132 26
-34 72 -62 138 -81 100 -30 126 -43 140 -72 14 -25 14 -33 1 -63 -26 -63 -108
-68 -210 -13 -37 20 -54 24 -68 16 -19 -10 -68 -81 -68 -98 0 -6 35 -27 77
-48 65 -32 89 -39 156 -42 124 -5 217 43 258 134 26 55 25 154 -1 204 -24 48
-60 71 -181 116 -131 48 -155 86 -93 143 33 29 85 29 153 -3 30 -14 61 -23 70
-20 10 3 27 26 40 52 l23 47 -26 23 c-47 40 -178 67 -253 52z"/>
<path d="M4803 6308 c-9 -13 -272 -686 -281 -720 -4 -16 4 -18 66 -18 88 0
109 15 137 101 l22 64 142 0 143 0 24 -65 c31 -87 49 -100 135 -100 38 0 69 4
69 10 0 5 -25 72 -55 150 -30 77 -78 199 -106 272 -98 258 -112 293 -122 306
-6 8 -37 12 -87 12 -50 0 -81 -4 -87 -12z m136 -290 c24 -73 46 -139 48 -145
4 -10 -19 -13 -97 -13 -78 0 -101 3 -97 13 2 6 24 72 48 145 24 72 46 132 49
132 3 0 25 -60 49 -132z"/>
<path d="M5837 6313 c-4 -3 -7 -35 -7 -70 l0 -63 105 0 105 0 0 -305 0 -305
85 0 85 0 0 305 0 305 105 0 106 0 -3 68 -3 67 -286 3 c-157 1 -288 -1 -292
-5z"/>
<path d="M6625 6288 c-7 -18 -43 -109 -79 -203 -36 -93 -94 -246 -131 -339
-36 -93 -65 -170 -65 -172 0 -2 30 -4 68 -4 95 0 111 11 140 98 l24 72 142 0
142 0 25 -72 c28 -86 45 -98 137 -98 46 0 62 3 62 14 0 8 -45 130 -100 272
-55 143 -117 302 -137 354 -21 52 -42 98 -48 102 -5 4 -45 8 -88 8 l-78 0 -14
-32z m149 -276 c25 -74 46 -138 46 -143 0 -5 -44 -9 -99 -9 l-99 0 49 143 c27
78 49 144 49 146 0 13 12 -17 54 -137z"/>
<path d="M7160 5945 l0 -376 73 3 72 3 5 229 5 230 173 -220 c96 -120 183
-224 195 -231 12 -7 43 -12 70 -13 l47 0 -2 373 -3 372 -70 0 -70 0 0 -228 c0
-125 -2 -227 -5 -227 -6 0 -30 30 -213 261 -81 103 -154 190 -163 193 -8 3
-38 6 -65 6 l-49 0 0 -375z"/>
<path d="M8139 6293 c-24 -64 -213 -554 -240 -622 -16 -40 -29 -80 -29 -87 0
-10 16 -14 63 -14 91 0 108 12 136 98 l25 72 142 0 142 0 22 -64 c32 -98 35
-100 129 -104 45 -2 81 -2 81 0 0 7 -278 727 -285 738 -4 6 -44 10 -91 10 -83
0 -85 0 -95 -27z m153 -293 l47 -140 -100 0 c-54 0 -99 3 -99 8 0 16 95 281
99 276 3 -3 26 -68 53 -144z"/>
<path d="M8875 6308 c-3 -7 -4 -175 -3 -373 l3 -360 83 -3 82 -3 -2 373 -3
373 -78 3 c-56 2 -79 -1 -82 -10z"/>
<path d="M9137 6313 c-4 -3 -7 -35 -7 -70 l0 -63 105 0 105 0 0 -305 0 -306
83 3 82 3 3 303 2 302 106 0 105 0 -3 68 -3 67 -286 3 c-157 1 -288 -1 -292
-5z"/>
<path d="M424 6129 c-30 -38 -92 -292 -101 -410 -7 -92 -5 -93 107 -103 96 -9
104 -2 124 119 8 50 26 138 41 197 15 59 25 118 23 130 -6 45 -168 100 -194
67z"/>
<path d="M837 5988 c-23 -18 -44 -83 -72 -226 -26 -130 -24 -151 15 -172 25
-13 167 -13 175 1 7 11 64 251 72 304 6 37 -11 53 -86 83 -62 25 -81 27 -104
10z"/>
<path d="M1773 5976 c-37 -46 -57 -104 -46 -129 13 -29 137 -78 168 -67 29 10
70 90 62 121 -8 31 -103 99 -140 99 -15 0 -33 -10 -44 -24z"/>
<path d="M2814 5981 c-131 -21 -246 -77 -344 -167 -141 -131 -210 -288 -210
-479 0 -187 56 -322 190 -456 132 -132 271 -191 455 -192 115 -1 178 14 291
68 158 76 274 210 330 382 24 74 29 104 29 193 0 122 -14 188 -61 285 -82 173
-238 302 -421 349 -75 19 -194 27 -259 17z"/>
<path d="M1253 5838 c-17 -8 -27 -33 -49 -125 -37 -160 -37 -161 108 -177 71
-8 90 15 112 131 10 50 15 101 11 112 -10 34 -144 78 -182 59z"/>
<path d="M1663 5159 c-57 -17 -56 -71 3 -249 60 -179 147 -326 276 -462 55
-58 81 -69 109 -45 35 28 99 116 99 135 0 11 -31 56 -69 100 -110 128 -179
261 -222 430 -10 42 -27 83 -36 90 -19 14 -113 15 -160 1z"/>
<path d="M1261 5121 c-54 -7 -81 -27 -81 -60 0 -17 22 -117 41 -187 16 -61 44
-71 125 -44 104 35 106 41 74 185 -25 119 -29 121 -159 106z"/>
<path d="M8518 5090 c-48 -14 -94 -49 -124 -91 -60 -87 -38 -232 45 -286 18
-12 71 -35 118 -50 107 -33 127 -49 127 -97 0 -47 -29 -76 -83 -83 -33 -5 -54
0 -105 26 -87 42 -100 41 -135 -16 -36 -58 -31 -66 62 -109 55 -26 73 -29 162
-29 91 0 104 3 146 27 25 15 58 44 73 66 35 52 52 142 37 199 -22 79 -57 105
-229 168 -74 27 -92 45 -92 88 0 33 30 58 78 64 30 4 55 -2 100 -22 34 -15 68
-25 76 -22 8 3 26 28 40 54 l24 49 -33 23 c-18 12 -55 29 -81 37 -51 15 -162
17 -206 4z"/>
<path d="M823 5081 c-29 -4 -58 -12 -65 -19 -16 -16 -14 -75 7 -177 35 -170
59 -225 99 -225 29 0 127 38 149 57 23 21 22 33 -17 202 -41 181 -38 178 -173
162z"/>
<path d="M4532 4838 c5 -297 11 -322 92 -403 67 -66 132 -88 249 -84 106 5
181 39 232 106 58 77 65 116 65 390 l0 243 -85 0 -85 0 0 -242 c0 -272 -4
-292 -69 -335 -61 -41 -152 -24 -196 35 -19 25 -20 45 -23 285 l-3 257 -90 0
-91 0 4 -252z"/>
<path d="M5310 4720 l0 -370 70 0 70 0 0 224 c0 124 4 227 8 230 5 3 86 -94
182 -216 96 -122 185 -224 198 -229 13 -5 43 -9 68 -9 l44 0 0 370 0 370 -75
0 -76 0 3 -225 c2 -124 0 -225 -3 -225 -4 0 -86 101 -184 225 l-178 225 -63 0
-64 0 0 -370z"/>
<path d="M6100 4720 l0 -371 83 3 82 3 3 368 2 367 -85 0 -85 0 0 -370z"/>
<path d="M6351 5038 c75 -192 263 -656 270 -670 8 -15 23 -18 83 -18 l73 0
147 365 c80 200 146 367 146 370 0 3 -38 5 -85 5 -73 0 -86 -3 -95 -20 -10
-19 -46 -117 -138 -375 -47 -132 -51 -138 -61 -112 -6 16 -11 31 -11 34 0 6
-107 303 -147 408 -23 63 -27 65 -119 65 l-84 0 21 -52z"/>
<path d="M7132 4723 l3 -368 238 -3 237 -2 0 70 0 70 -150 0 -150 0 0 85 0 85
115 0 115 0 0 65 0 65 -115 0 -115 0 0 85 0 84 148 3 147 3 3 63 3 62 -241 0
-240 0 2 -367z"/>
<path d="M7720 4721 l0 -371 85 0 85 0 0 140 0 140 34 0 c42 0 50 -10 131
-153 47 -83 66 -109 89 -117 31 -11 176 -14 176 -4 0 14 -174 286 -186 291
-22 8 -17 17 31 51 59 42 88 100 89 177 0 85 -31 138 -104 179 l-55 31 -187 3
-188 4 0 -371z m305 235 c48 -20 69 -57 62 -108 -9 -66 -42 -92 -127 -96 l-70
-4 0 111 0 111 50 0 c28 0 66 -6 85 -14z"/>
<path d="M8952 4723 l3 -368 83 -3 82 -3 0 371 0 370 -85 0 -85 0 2 -367z"/>
<path d="M9210 5025 l0 -65 105 0 105 0 0 -305 0 -305 85 0 85 0 0 305 0 305
105 0 105 0 0 62 c0 38 4 58 9 53 5 -6 66 -107 135 -226 l126 -216 0 -141 0
-142 85 0 85 0 0 143 0 142 96 165 c53 91 108 185 122 210 13 25 28 49 33 54
20 22 4 27 -83 24 l-93 -3 -80 -163 -80 -163 -82 165 -83 166 -390 0 -390 0 0
-65z"/>
<path d="M403 5051 c-62 -7 -93 -30 -93 -68 0 -45 29 -198 60 -317 44 -172 95
-306 185 -491 127 -261 276 -473 480 -682 125 -129 138 -132 214 -46 75 84 73
96 -45 218 -192 201 -317 381 -439 630 -104 212 -186 469 -211 665 -5 36 -15
61 -30 77 -24 23 -30 24 -121 14z"/>
<path d="M1384 4713 c-103 -42 -102 -70 6 -258 91 -158 181 -269 332 -411 94
-89 278 -223 334 -244 47 -18 78 3 108 71 43 100 40 110 -61 175 -237 153
-424 358 -544 596 -54 108 -70 114 -175 71z"/>
<path d="M3556 4456 c-20 -18 -36 -41 -36 -51 0 -21 43 -100 73 -132 29 -32
53 -29 114 17 70 54 72 81 7 150 -40 43 -52 50 -85 50 -29 0 -46 -8 -73 -34z"/>
<path d="M2203 4393 c-80 -86 -80 -116 5 -170 75 -49 96 -41 140 50 20 43 30
76 27 88 -8 26 -82 79 -108 79 -11 0 -40 -21 -64 -47z"/>
<path d="M3325 4331 c-17 -15 -135 -49 -230 -67 -67 -12 -127 -15 -235 -12
-80 3 -151 3 -158 0 -18 -6 -36 -47 -52 -115 -13 -55 -12 -59 7 -79 29 -28 86
-37 249 -38 152 0 253 14 390 55 186 56 216 84 174 163 -40 75 -67 102 -104
102 -18 0 -36 -4 -41 -9z"/>
<path d="M3827 4124 c-103 -79 -107 -94 -52 -184 51 -83 67 -87 146 -33 170
115 183 146 98 232 -68 69 -83 68 -192 -15z"/>
<path d="M1242 4085 c-77 -56 -79 -74 -18 -153 53 -68 199 -212 216 -212 42 0
139 105 140 152 0 10 -51 72 -112 138 -87 93 -119 120 -138 120 -15 0 -53 -20
-88 -45z"/>
<path d="M3070 3819 c-30 -5 -61 -16 -69 -24 -21 -20 -33 -143 -17 -175 11
-24 14 -25 109 -23 164 3 196 25 172 121 -26 97 -34 107 -90 109 -28 0 -75 -3
-105 -8z"/>
<path d="M4645 3720 c-66 -15 -107 -55 -125 -121 -13 -46 -79 -108 -228 -212
-69 -48 -105 -80 -109 -96 -4 -17 4 -44 28 -89 54 -101 84 -106 197 -30 102
68 221 159 251 192 15 16 35 26 51 26 56 0 126 68 136 132 20 123 -84 225
-201 198z"/>
<path d="M3744 3561 c-33 -16 -100 -44 -149 -62 -108 -41 -114 -51 -91 -146
19 -76 38 -103 72 -103 29 0 171 53 264 98 68 34 75 40 78 69 5 51 -70 173
-107 173 -3 0 -33 -13 -67 -29z"/>
<path d="M1380 3404 c-54 -49 -84 -99 -76 -128 9 -35 197 -169 352 -250 71
-37 95 -27 134 56 33 69 37 96 18 120 -7 8 -53 39 -103 68 -49 29 -112 69
-140 88 -97 69 -118 82 -131 82 -8 0 -32 -16 -54 -36z"/>
<path d="M2473 3404 c-14 -6 -53 -124 -53 -158 1 -49 24 -61 161 -81 140 -21
231 -20 252 3 23 25 24 173 2 192 -20 17 -337 55 -362 44z"/>
<path d="M3955 3188 c-108 -58 -316 -132 -479 -172 -190 -47 -350 -66 -570
-66 -195 0 -229 3 -429 37 -96 16 -98 16 -118 -3 -27 -28 -61 -149 -49 -179
13 -34 34 -42 171 -66 180 -30 555 -38 740 -14 297 37 535 105 794 224 49 23
97 49 107 58 28 25 21 71 -20 138 -33 53 -41 60 -72 62 -21 2 -52 -6 -75 -19z"/>
</g>
</svg>
